<?xml version="1.0" encoding="UTF-8"?>
<svg height="33px" viewBox="0 0 34 33" version="1.1" xmlns="http://www.w3.org/2000/svg" xmlns:xlink="http://www.w3.org/1999/xlink" preserveAspectRatio="meet">
    <defs>
        <path d="M16.1866341,0 C11.7741127,0 8.06399261,4.03712797 7,9.50715612 C7.45441351,9.21109048 7.91852487,8.94808072 8.38817786,8.71956405 C9.36211901,5.59219115 11.4430004,3.43349901 13.8494524,3.43349901 C17.1924396,3.43349901 19.9036812,7.59710162 19.9036812,12.7351338 C19.9036812,15.8553207 18.9020319,18.6176418 17.3670009,20.3049284 C18.3243172,21.4705072 19.6002771,22.5067369 21.121454,23.2684592 C21.7227207,23.5717109 22.329529,23.8131625 22.9349518,24 C25.9468268,21.8643033 28,17.621654 28,12.7351338 C28,5.70141925 23.7495712,0 18.5044201,0 L16.1866341,0 Z" id="path-1"></path>
    </defs>
    <g stroke-width="1" fill-rule="evenodd">
        <path d="M10.2515545,33 C11.9233167,32.9999977 13.6677659,32.5562807 15.3296413,31.7016277 C14.8556359,31.4198231 14.4028545,31.1151308 13.9741272,30.7918423 C12.0016985,31.4126707 10.0802077,31.1966682 8.71761892,29.9964952 C6.10139178,27.6977134 6.52304439,22.6581314 9.65997007,18.7414764 C12.2832719,15.4642461 15.9762697,14.0123086 18.6462646,14.9707304 C18.8754851,14.0037257 19,12.9609056 19,11.8737406 C19,11.3487543 18.9702862,10.8337814 18.9151035,10.3316829 L18.5302394,9.99408951 C16.9964426,8.64514661 15.0862714,8 13.0685645,8 C9.68968384,8 6.01366539,9.81384899 3.32527623,13.1711862 C1.11390017,15.9327984 4.13805228e-07,19.2004314 1.15321071e-13,22.2132592 L0,22.2132592 C-3.89777289e-07,25.0511463 0.988296412,27.6629597 2.97861552,29.4128593 C3.80494145,30.1395433 3.9662448,30.2797303 4.79257074,31.0064143 C6.32493767,32.3546285 8.23536013,32.9999918 10.2515033,33 L10.2515545,33 L10.2515545,33 Z" id="Clip-12" fill="#FF5601"></path>
        <path d="M28,19.5646848 C28.7380484,17.9244099 29.2331948,16.033164 29.4066963,14 C32.2067426,16.7143711 32.3321975,20.0606513 31.662215,21.7248282 C30.9935671,23.3890051 30.5491365,23.4636988 29.8230997,24 C29.6536022,22.4896923 29.0810474,20.9644458 28,19.5646848 Z" id="Mask" fill="#FF5601"></path>
        <path d="M8,9 C9.85934945,8.19042496 11.8044703,7.83539537 13.6332909,7.97660032 L13.6332909,7.97660032 C14.243867,6.55379236 15.0637834,5.4429801 16,4.6253362 L16,4.6253362 C15.29493,4.25685853 14.8936943,4 13.2306015,4 L13.2306015,4 C11.5675086,4 8.75159004,5.91500807 8,9" id="Fill-4" fill="#FF5601"></path>
        <path d="M7,27.4058099 C7.22706612,28.6903541 7.61033058,29.9155877 8.47086777,30.7240858 L8.47086777,30.7240858 C9.86363636,32.0304814 11.8710744,32.422244 14,31.4826381 L14,31.4826381 C12.4293388,30.2152627 11.163843,28.6731853 10.2642562,27 L10.2642562,27 C9.1303719,27.3823977 8.02830579,27.5010191 7,27.4058099" id="Fill-6" fill="#FF5601"></path>
        <path d="M29.1957391,14.5279439 C31.4310691,16.7523262 32.3769461,19.6309387 31.3559553,21.9270753 L31.3559553,21.9270753 C29.9371398,25.116623 25.2620036,25.9790812 20.9151424,23.8531851 L20.9151424,23.8531851 C17.5044212,22.1873604 15.3094302,19.1793089 15.2051055,16.4202869 L15.2051055,16.4202869 C13.6277165,17.0576336 12.0531095,18.2282131 10.7483556,19.860271 L10.7483556,19.860271 C10.4771115,20.1965312 10.2281233,20.54264 10,20.8943766 L10,20.8943766 C10.0625948,25.037834 12.9057898,29.3416832 17.4779923,31.5773212 L17.4779923,31.5773212 C23.4314534,34.4868865 30.0595474,32.791516 32.2851403,27.7884143 L32.2851403,27.7884143 C32.7344319,26.7796337 32.8206736,26.5854751 33.2685742,25.5766945 L33.2685742,25.5766945 C35.1185984,21.4191677 33.340906,16.2838131 29.2694619,13 L29.2694619,13 C29.2680709,13.5177563 29.243033,14.0270709 29.1957391,14.5279439" id="Fill-14" fill="#FF5601"></path>
        <mask id="mask-2" fill="white">
            <use xlink:href="#path-1"></use>
        </mask>
        <use id="Clip-9" fill="#FF5601" xlink:href="#path-1"></use>
    </g>
</svg>