<svg xmlns="http://www.w3.org/2000/svg" xmlns:xlink="http://www.w3.org/1999/xlink" version="1.1" x="0px" y="0px" viewBox="0 0 100 125" style="enable-background:new 0 0 100 100;" xml:space="preserve"><path d="M50,10c-22.06,0-40,17.94-40,40s17.94,40,40,40s40-17.94,40-40S72.06,10,50,10z M50,88.48c-21.22,0-38.48-17.26-38.48-38.48  c0-21.22,17.26-38.48,38.48-38.48c21.22,0,38.48,17.26,38.48,38.48C88.48,71.22,71.22,88.48,50,88.48z"/><path d="M58.5,18.23c-0.89-0.24-1.83-0.05-2.56,0.52c-0.75,0.58-1.18,1.45-1.18,2.39c0,1.37-1.12,2.49-2.49,2.49h-4.52  c-1.39,0-2.51-1.13-2.51-2.51c0-0.94-0.43-1.81-1.18-2.39c-0.74-0.57-1.67-0.76-2.56-0.52C27.09,22,17.03,35.09,17.03,50.03  c0,2.9,0.38,5.78,1.12,8.55c0.24,0.89,0.86,1.6,1.72,1.96c0.87,0.36,1.84,0.3,2.66-0.17l-0.38-0.66l0.46,0.61  c1.18-0.68,2.68-0.28,3.39,0.87l2.31,4c0.65,1.19,0.23,2.69-1.01,3.41c-0.82,0.47-1.35,1.28-1.48,2.22  c-0.12,0.92,0.18,1.83,0.84,2.48c6.22,6.22,14.49,9.65,23.29,9.65c8.83,0,17.11-3.44,23.33-9.69c0.65-0.66,0.96-1.56,0.83-2.49  c-0.12-0.94-0.67-1.74-1.48-2.21c-0.58-0.33-0.99-0.87-1.17-1.52c-0.17-0.63-0.08-1.28,0.23-1.85l2.32-4.01  c0.71-1.14,2.2-1.53,3.37-0.86c0.82,0.47,1.79,0.54,2.67,0.17c0.86-0.36,1.49-1.07,1.72-1.96c0.73-2.77,1.1-5.63,1.1-8.5  C82.88,35.14,72.86,22.07,58.5,18.23z M48.14,25.14h3.72l0.89,17.43c-0.86-0.32-1.78-0.52-2.75-0.52c-0.97,0-1.89,0.2-2.75,0.52  L48.14,25.14z M56.43,50c0,3.54-2.88,6.43-6.43,6.43c-3.54,0-6.43-2.88-6.43-6.43c0-3.54,2.88-6.43,6.43-6.43  C53.54,43.57,56.43,46.46,56.43,50z M23.85,58.47c-0.68,0-1.37,0.17-2,0.53l-0.08,0.04c-0.4,0.23-0.89,0.26-1.32,0.08  c-0.42-0.17-0.72-0.52-0.84-0.95c-0.71-2.64-1.06-5.39-1.06-8.16c0-14.25,9.6-26.73,23.35-30.36c0.43-0.11,0.88-0.02,1.24,0.26  c0.37,0.29,0.58,0.72,0.58,1.18c0,1.83,1.23,3.36,2.9,3.85l-0.94,18.38c-2.07,1.35-3.46,3.63-3.59,6.24L26.64,59.59  C25.88,58.87,24.88,58.47,23.85,58.47z M27.54,60.82l14.65-9.48c0.33,1.91,1.34,3.57,2.77,4.76L29.4,64.04L27.54,60.82z   M71.88,69.87c0.4,0.23,0.67,0.63,0.73,1.1c0.06,0.45-0.09,0.9-0.4,1.21c-5.93,5.96-13.83,9.25-22.25,9.25  c-8.4,0-16.29-3.27-22.22-9.2c-0.32-0.32-0.47-0.76-0.41-1.21c0.06-0.47,0.33-0.87,0.79-1.14c1.58-0.92,2.29-2.75,1.88-4.44  l16.42-8.38c1.08,0.55,2.29,0.89,3.58,0.89c1.3,0,2.5-0.34,3.58-0.89L70,65.44c-0.16,0.65-0.17,1.33,0.01,1.99  C70.28,68.47,70.95,69.34,71.88,69.87z M70.6,64.04l-15.56-7.94c1.43-1.19,2.45-2.85,2.77-4.76l14.65,9.48L70.6,64.04z M80.31,58.14  c-0.11,0.43-0.42,0.77-0.84,0.95c-0.43,0.18-0.92,0.15-1.32-0.08c-1.58-0.91-3.52-0.61-4.77,0.59L57.91,49.58  c-0.14-2.62-1.52-4.9-3.59-6.24l-0.94-18.37c1.67-0.48,2.9-2.01,2.9-3.83c0-0.47,0.21-0.9,0.59-1.19c0.36-0.28,0.81-0.37,1.24-0.25  c13.69,3.66,23.25,16.13,23.25,30.33C81.36,52.77,81,55.5,80.31,58.14z"/><path d="M46.69,50c0,1.83,1.49,3.31,3.31,3.31c1.83,0,3.31-1.49,3.31-3.31s-1.49-3.31-3.31-3.31C48.17,46.69,46.69,48.17,46.69,50z   M51.79,50c0,0.99-0.8,1.79-1.79,1.79s-1.79-0.8-1.79-1.79s0.8-1.79,1.79-1.79S51.79,49.01,51.79,50z"/><text x="0" y="115" fill="#000000" font-size="5px" font-weight="bold" font-family="'Helvetica Neue', Helvetica, Arial-Unicode, Arial, Sans-serif">Created by ainul muttaqin</text><text x="0" y="120" fill="#000000" font-size="5px" font-weight="bold" font-family="'Helvetica Neue', Helvetica, Arial-Unicode, Arial, Sans-serif">from the Noun Project</text></svg>