<svg xmlns="http://www.w3.org/2000/svg" data-name="Layer 1" viewBox="0 0 100 125" x="0px" y="0px"><title>crossfit</title><path d="M50,68.94a20,20,0,1,1,20-20A20,20,0,0,1,50,68.94Zm0-39a19,19,0,1,0,19,19A19,19,0,0,0,50,29.94Z"/><path d="M50,70.87A21.93,21.93,0,1,1,71.93,48.94,22,22,0,0,1,50,70.87Zm0-43.26A21.33,21.33,0,1,0,71.33,48.94,21.35,21.35,0,0,0,50,27.61Z"/><path d="M53.08,92.23H49.32a1.8,1.8,0,0,1-1.7-1.4l-.12-.58a41.58,41.58,0,0,1-4.57-.54l0,.53a1.35,1.35,0,0,1-.55,1,1.31,1.31,0,0,1-1.12.17l-3.62-1a1.8,1.8,0,0,1-1.26-1.8l0-.59c-1.21-.42-2.39-.89-3.52-1.4l-.17.5a1.34,1.34,0,0,1-.79.85,1.31,1.31,0,0,1-1.12-.11L27.57,86a1.8,1.8,0,0,1-.76-2.06l.19-.56c-1.07-.72-2.11-1.49-3.1-2.29l-.29.45a1.34,1.34,0,0,1-1,.62,1.28,1.28,0,0,1-1.06-.39l-2.66-2.66a1.79,1.79,0,0,1-.21-2.19l.32-.5a41.79,41.79,0,0,1-2.85-3.6l-.4.35a1.36,1.36,0,0,1-1.11.33,1.31,1.31,0,0,1-.91-.67l-1.84-3.28a1.79,1.79,0,0,1,.39-2.16l.44-.39c-.56-1.15-1.06-2.31-1.5-3.48l-.47.23a1.34,1.34,0,0,1-1.16,0,1.31,1.31,0,0,1-.72-.87L8,59.26a1.79,1.79,0,0,1,.92-2L9.4,57c-.24-1.23-.43-2.51-.56-3.81l-.52.11A1.34,1.34,0,0,1,7.18,53a1.31,1.31,0,0,1-.47-1V48.26a1.8,1.8,0,0,1,1.4-1.7l.58-.12a41.58,41.58,0,0,1,.54-4.57l-.53,0a1.35,1.35,0,0,1-1-.55,1.31,1.31,0,0,1-.17-1.12l1-3.62a1.79,1.79,0,0,1,1.81-1.26l.59,0c.42-1.21.89-2.39,1.4-3.52l-.5-.17a1.34,1.34,0,0,1-.85-.79,1.31,1.31,0,0,1,.11-1.12L13,26.51A1.8,1.8,0,0,1,15,25.75l.56.19c.72-1.08,1.49-2.11,2.29-3.1l-.45-.29a1.34,1.34,0,0,1-.62-1,1.31,1.31,0,0,1,.39-1.06l2.66-2.66a1.79,1.79,0,0,1,2.19-.21l.49.32a42,42,0,0,1,3.6-2.85l-.35-.4a1.35,1.35,0,0,1-.33-1.11,1.31,1.31,0,0,1,.67-.91l3.28-1.84a1.8,1.8,0,0,1,2.16.39l.39.44c1.15-.56,2.31-1.06,3.48-1.5l-.23-.47a1.34,1.34,0,0,1,0-1.16A1.31,1.31,0,0,1,36,7.85l3.63-1a1.79,1.79,0,0,1,2,.92l.26.52c1.23-.24,2.51-.43,3.81-.56l-.11-.52a1.34,1.34,0,0,1,.25-1.13,1.31,1.31,0,0,1,1-.47h3.76A1.8,1.8,0,0,1,52.37,7l.12.58a41.58,41.58,0,0,1,4.57.54l0-.53a1.35,1.35,0,0,1,.55-1,1.31,1.31,0,0,1,1.12-.17l3.62,1a1.8,1.8,0,0,1,1.26,1.8l0,.59c1.21.42,2.39.89,3.52,1.4l.17-.5a1.34,1.34,0,0,1,.79-.85,1.31,1.31,0,0,1,1.12.11l3.24,1.9A1.8,1.8,0,0,1,73.2,14l-.19.56c1.07.72,2.11,1.49,3.1,2.29l.29-.45a1.34,1.34,0,0,1,1-.62,1.28,1.28,0,0,1,1.06.39l2.66,2.66A1.79,1.79,0,0,1,81.3,21l-.32.5a41.79,41.79,0,0,1,2.85,3.6l.4-.35a1.36,1.36,0,0,1,1.11-.33,1.31,1.31,0,0,1,.91.67l1.84,3.28a1.79,1.79,0,0,1-.39,2.16l-.44.39c.56,1.15,1.06,2.31,1.5,3.48l.47-.23a1.35,1.35,0,0,1,1.16,0,1.31,1.31,0,0,1,.72.87l1,3.63a1.79,1.79,0,0,1-.92,2l-.52.26c.24,1.23.43,2.51.56,3.81l.52-.11a1.34,1.34,0,0,1,1.13.25,1.31,1.31,0,0,1,.47,1v3.76a1.8,1.8,0,0,1-1.4,1.7l-.58.12A41.58,41.58,0,0,1,90.78,56l.53,0a1.35,1.35,0,0,1,1,.55,1.31,1.31,0,0,1,.17,1.12l-1,3.62a1.82,1.82,0,0,1-1.81,1.26l-.59,0c-.42,1.21-.89,2.39-1.4,3.52l.5.17A1.34,1.34,0,0,1,89,67a1.31,1.31,0,0,1-.11,1.12L87,71.37a1.8,1.8,0,0,1-2.06.76l-.56-.19c-.72,1.08-1.49,2.12-2.29,3.1l.45.29a1.34,1.34,0,0,1,.62,1,1.31,1.31,0,0,1-.39,1.06L80.13,80a1.79,1.79,0,0,1-2.19.21l-.49-.32a42,42,0,0,1-3.6,2.85l.35.4a1.35,1.35,0,0,1,.33,1.11,1.31,1.31,0,0,1-.67.91L70.58,87a1.79,1.79,0,0,1-2.16-.39L68,86.2c-1.15.56-2.31,1.06-3.48,1.5l.23.47a1.34,1.34,0,0,1,0,1.16A1.31,1.31,0,0,1,64,90l-3.63,1a1.79,1.79,0,0,1-2-.92l-.26-.52c-1.23.24-2.51.43-3.81.56l.11.52a1.34,1.34,0,0,1-.25,1.13A1.31,1.31,0,0,1,53.08,92.23Zm-10.6-3.6h.09a40.76,40.76,0,0,0,5.37.64.5.5,0,0,1,.46.4l.2,1a.8.8,0,0,0,.72.6h3.76a.31.31,0,0,0,.25-.1.35.35,0,0,0,.05-.3l-.22-1.07a.5.5,0,0,1,.45-.6,40.7,40.7,0,0,0,4.63-.67.49.49,0,0,1,.55.27l.43.87a.81.81,0,0,0,.85.4l3.63-1a.31.31,0,0,0,.22-.16.35.35,0,0,0,0-.3l-.48-1a.5.5,0,0,1,.28-.69,40,40,0,0,0,4.24-1.82.5.5,0,0,1,.6.12l.64.73a.81.81,0,0,0,.92.17l3.28-1.84a.31.31,0,0,0,.17-.21.35.35,0,0,0-.1-.28L72.72,83a.5.5,0,0,1,.09-.74,40.83,40.83,0,0,0,4.25-3.35.5.5,0,0,1,.61,0l.82.53a.81.81,0,0,0,.93-.08l2.66-2.66a.31.31,0,0,0,.11-.25.35.35,0,0,0-.17-.25l-.91-.6a.5.5,0,0,1-.11-.74,40.26,40.26,0,0,0,2.79-3.76.5.5,0,0,1,.58-.2l.93.31a.82.82,0,0,0,.88-.32l1.9-3.24a.31.31,0,0,0,0-.27.35.35,0,0,0-.23-.19l-1-.34a.5.5,0,0,1-.29-.69,40.46,40.46,0,0,0,1.72-4.29.5.5,0,0,1,.51-.34l1,.07a.8.8,0,0,0,.78-.53l1-3.62a.31.31,0,0,0,0-.27.35.35,0,0,0-.27-.13L90.15,57a.5.5,0,0,1-.46-.59A40.76,40.76,0,0,0,90.34,51a.5.5,0,0,1,.4-.46l1-.2a.81.81,0,0,0,.6-.72V45.86a.31.31,0,0,0-.1-.25.35.35,0,0,0-.3-.05h0l-1.07.22a.5.5,0,0,1-.6-.45,40.75,40.75,0,0,0-.67-4.64.5.5,0,0,1,.27-.55l.87-.43a.81.81,0,0,0,.4-.85l-1-3.63A.31.31,0,0,0,90,35a.36.36,0,0,0-.3,0l-1,.48a.49.49,0,0,1-.41,0,.5.5,0,0,1-.28-.29A40,40,0,0,0,86.19,31a.5.5,0,0,1,.12-.6l.73-.64a.81.81,0,0,0,.17-.92l-1.84-3.28a.31.31,0,0,0-.21-.17.35.35,0,0,0-.28.1l-.82.71a.48.48,0,0,1-.39.12.5.5,0,0,1-.35-.21A40.83,40.83,0,0,0,80,21.87a.5.5,0,0,1,0-.61l.54-.82a.81.81,0,0,0-.08-.93l-2.66-2.66a.32.32,0,0,0-.25-.11.35.35,0,0,0-.25.17l-.6.91a.5.5,0,0,1-.74.11,40.69,40.69,0,0,0-3.76-2.79.5.5,0,0,1-.2-.58l.31-.93a.81.81,0,0,0-.32-.88l-3.24-1.9a.31.31,0,0,0-.27,0,.35.35,0,0,0-.19.23l-.34,1a.5.5,0,0,1-.69.29,40.46,40.46,0,0,0-4.29-1.72.5.5,0,0,1-.34-.51l.07-1a.81.81,0,0,0-.53-.77l-3.62-1a.31.31,0,0,0-.27,0,.35.35,0,0,0-.13.27L58,8.79a.5.5,0,0,1-.19.36.49.49,0,0,1-.4.1,40.76,40.76,0,0,0-5.37-.64.5.5,0,0,1-.46-.4l-.2-1a.8.8,0,0,0-.72-.6H46.92a.31.31,0,0,0-.25.1.35.35,0,0,0-.05.3l.22,1.07a.5.5,0,0,1-.45.6,40.75,40.75,0,0,0-4.64.67.49.49,0,0,1-.55-.27l-.43-.87a.81.81,0,0,0-.85-.4l-3.63,1a.31.31,0,0,0-.22.16.35.35,0,0,0,0,.3l.48,1a.5.5,0,0,1-.28.69,40,40,0,0,0-4.24,1.82.5.5,0,0,1-.6-.12l-.64-.73a.81.81,0,0,0-.92-.17l-3.28,1.84a.31.31,0,0,0-.17.21.35.35,0,0,0,.1.28l.71.82a.5.5,0,0,1-.09.74A40.83,40.83,0,0,0,22.93,19a.5.5,0,0,1-.61,0l-.82-.53a.81.81,0,0,0-.93.08l-2.66,2.66a.31.31,0,0,0-.11.25.35.35,0,0,0,.17.25l.91.6A.5.5,0,0,1,19,23a40.38,40.38,0,0,0-2.79,3.76.5.5,0,0,1-.58.2l-.93-.31a.81.81,0,0,0-.88.32l-1.9,3.24a.31.31,0,0,0,0,.27.35.35,0,0,0,.23.19l1,.34a.5.5,0,0,1,.29.69A40.46,40.46,0,0,0,11.73,36a.5.5,0,0,1-.51.34l-1-.07a.81.81,0,0,0-.77.53l-1,3.62a.31.31,0,0,0,0,.27.35.35,0,0,0,.27.13l1.09.08a.5.5,0,0,1,.46.59,40.76,40.76,0,0,0-.64,5.37.5.5,0,0,1-.4.46l-1,.2a.81.81,0,0,0-.6.72V52a.31.31,0,0,0,.1.25.35.35,0,0,0,.3.05l1.07-.22a.51.51,0,0,1,.4.09.5.5,0,0,1,.2.36,40.75,40.75,0,0,0,.67,4.64.5.5,0,0,1-.27.55l-.87.43a.81.81,0,0,0-.4.85l1,3.63a.31.31,0,0,0,.16.22.36.36,0,0,0,.3,0l1-.48a.49.49,0,0,1,.41,0,.5.5,0,0,1,.28.29,40,40,0,0,0,1.82,4.24.5.5,0,0,1-.12.6l-.73.64a.81.81,0,0,0-.17.92l1.84,3.28a.31.31,0,0,0,.21.17.35.35,0,0,0,.28-.1l.82-.71a.5.5,0,0,1,.74.09A40.83,40.83,0,0,0,20,76a.5.5,0,0,1,0,.61l-.54.82a.81.81,0,0,0,.08.93L22.27,81a.31.31,0,0,0,.25.11.35.35,0,0,0,.25-.17l.6-.91a.5.5,0,0,1,.74-.11,40.69,40.69,0,0,0,3.76,2.79.5.5,0,0,1,.2.58l-.31.93a.81.81,0,0,0,.32.88L31.31,87a.31.31,0,0,0,.27,0,.35.35,0,0,0,.19-.23l.34-1a.5.5,0,0,1,.69-.29,40.46,40.46,0,0,0,4.29,1.72.5.5,0,0,1,.34.51l-.07,1a.81.81,0,0,0,.53.77l3.62,1a.3.3,0,0,0,.27,0,.35.35,0,0,0,.13-.27L42,89.09a.5.5,0,0,1,.5-.47ZM91.79,45.07h0Z"/><path d="M53.08,18H49.32a1.59,1.59,0,0,1-1.5-1.24l-2-9.51a1.15,1.15,0,0,1,.21-1,1.09,1.09,0,0,1,.87-.4h3.76a1.59,1.59,0,0,1,1.5,1.24l2,9.51a1.15,1.15,0,0,1-.21,1A1.09,1.09,0,0,1,53.08,18ZM46.92,6.45a.51.51,0,0,0-.41.18.54.54,0,0,0-.09.46l2,9.51a1,1,0,0,0,.92.76h3.76a.51.51,0,0,0,.41-.18.54.54,0,0,0,.09-.46l-2-9.51a1,1,0,0,0-.92-.76Z"/><path d="M74.87,29.55a1.1,1.1,0,0,1-.79-.34l-2.66-2.66a1.59,1.59,0,0,1-.19-1.94l5.32-8.13A1.15,1.15,0,0,1,77.4,16a1.13,1.13,0,0,1,.9.34L80.95,19a1.61,1.61,0,0,1,.19,1.94L75.81,29a1.15,1.15,0,0,1-.83.53Zm2.63-13h0a.54.54,0,0,0-.39.26l-5.32,8.13a1,1,0,0,0,.11,1.19l2.66,2.66a.52.52,0,0,0,.41.16.55.55,0,0,0,.39-.26l5.32-8.13a1,1,0,0,0-.11-1.19l-2.66-2.66A.52.52,0,0,0,77.5,16.55Z"/><path d="M82.08,53.13A1.08,1.08,0,0,1,81,52V48.26a1.59,1.59,0,0,1,1.24-1.5l9.51-2a1.14,1.14,0,0,1,1,.21,1.09,1.09,0,0,1,.4.87v3.76a1.59,1.59,0,0,1-1.24,1.5l-9.51,2ZM92,45.35l-.14,0-9.51,2a1,1,0,0,0-.76.92V52a.51.51,0,0,0,.18.41.54.54,0,0,0,.46.09l9.51-2a1,1,0,0,0,.76-.92V45.86a.51.51,0,0,0-.18-.41A.5.5,0,0,0,92,45.35Z"/><path d="M78.9,80.32a1.55,1.55,0,0,1-.85-.25l-8.13-5.32a1.15,1.15,0,0,1-.53-.83,1.1,1.1,0,0,1,.34-.9h0l2.66-2.66a1.59,1.59,0,0,1,1.94-.19l8.13,5.32a1.15,1.15,0,0,1,.53.83,1.1,1.1,0,0,1-.34.9L80,79.89A1.54,1.54,0,0,1,78.9,80.32Zm-8.75-6.87a.51.51,0,0,0-.16.41.55.55,0,0,0,.26.39l8.13,5.32a1,1,0,0,0,1.19-.11l2.66-2.66a.51.51,0,0,0,.16-.41.54.54,0,0,0-.26-.39L74,70.68a1,1,0,0,0-1.19.11Z"/><path d="M53.08,92H49.32a1.59,1.59,0,0,1-1.5-1.24l-2-9.51a1.15,1.15,0,0,1,.21-1,1.09,1.09,0,0,1,.87-.4h3.76a1.59,1.59,0,0,1,1.5,1.24l2,9.51a1.15,1.15,0,0,1-.21,1A1.09,1.09,0,0,1,53.08,92ZM46.92,80.52a.51.51,0,0,0-.41.18.54.54,0,0,0-.09.46l2,9.51a1,1,0,0,0,.92.76h3.76a.51.51,0,0,0,.41-.18.54.54,0,0,0,.09-.46l-2-9.51a1,1,0,0,0-.92-.76Z"/><path d="M22.5,81.93a1.11,1.11,0,0,1-.79-.34l-2.66-2.66A1.61,1.61,0,0,1,18.87,77l5.32-8.13a1.15,1.15,0,0,1,.83-.53,1.09,1.09,0,0,1,.9.34l2.66,2.66a1.59,1.59,0,0,1,.19,1.94l-5.32,8.13a1.15,1.15,0,0,1-.83.53Zm2.63-13h0a.55.55,0,0,0-.39.26l-5.32,8.13a1,1,0,0,0,.11,1.19l2.66,2.66a.5.5,0,0,0,.41.16.54.54,0,0,0,.39-.26l5.32-8.13a1,1,0,0,0-.11-1.19l-2.66-2.66A.52.52,0,0,0,25.13,68.93Z"/><path d="M8,53.13A1.08,1.08,0,0,1,6.91,52V48.26a1.59,1.59,0,0,1,1.24-1.5l9.51-2a1.14,1.14,0,0,1,1,.21,1.09,1.09,0,0,1,.4.87v3.76a1.59,1.59,0,0,1-1.24,1.5l-9.51,2Zm9.92-7.78-.14,0-9.51,2a1,1,0,0,0-.76.92V52a.51.51,0,0,0,.18.41.54.54,0,0,0,.46.09l9.51-2a1,1,0,0,0,.76-.92V45.86a.51.51,0,0,0-.18-.41A.5.5,0,0,0,17.93,45.35Z"/><path d="M26.53,27.95a1.55,1.55,0,0,1-.85-.25l-8.13-5.32a1.15,1.15,0,0,1-.53-.83,1.1,1.1,0,0,1,.34-.9L20,18a1.61,1.61,0,0,1,1.94-.19l8.13,5.32a1.15,1.15,0,0,1,.53.83,1.1,1.1,0,0,1-.34.9l-2.66,2.66A1.54,1.54,0,0,1,26.53,27.95ZM21.1,18.16a1,1,0,0,0-.67.25l-2.66,2.66a.51.51,0,0,0-.16.41.54.54,0,0,0,.26.39L26,27.2a1,1,0,0,0,1.19-.11l2.66-2.66A.51.51,0,0,0,30,24a.55.55,0,0,0-.26-.39l-8.13-5.32A1,1,0,0,0,21.1,18.16Z"/><path d="M61.69,20a1.23,1.23,0,0,1-.33,0l-3.62-1a1.59,1.59,0,0,1-1.11-1.6l.67-9.69a1.15,1.15,0,0,1,.47-.87,1.1,1.1,0,0,1,.95-.15l3.62,1a1.59,1.59,0,0,1,1.11,1.6l-.67,9.69a1.15,1.15,0,0,1-.47.87A1.06,1.06,0,0,1,61.69,20ZM58.38,7.18a.47.47,0,0,0-.27.08.54.54,0,0,0-.21.42l-.67,9.69a1,1,0,0,0,.67,1l3.62,1h0a.51.51,0,0,0,.44-.06.54.54,0,0,0,.21-.42l.67-9.69a1,1,0,0,0-.67-1l-3.62-1Z"/><path d="M79.47,37.06l-.18,0a1.1,1.1,0,0,1-.77-.57h0L76.69,33.2A1.59,1.59,0,0,1,77,31.28l7.33-6.38a1.15,1.15,0,0,1,.95-.29,1.1,1.1,0,0,1,.77.57l1.84,3.28a1.59,1.59,0,0,1-.35,1.92l-7.33,6.38A1.18,1.18,0,0,1,79.47,37.06ZM79,36.18a.51.51,0,0,0,.35.27.55.55,0,0,0,.45-.15l7.33-6.38a1,1,0,0,0,.22-1.17l-1.84-3.28a.51.51,0,0,0-.35-.27.57.57,0,0,0-.45.15l-7.33,6.38a1,1,0,0,0-.22,1.17Z"/><path d="M89.79,62.38h-.1L80,61.71a1.15,1.15,0,0,1-.87-.47A1.1,1.1,0,0,1,79,60.3l1-3.62a1.57,1.57,0,0,1,1.6-1.11l9.69.67a1.15,1.15,0,0,1,.87.47,1.1,1.1,0,0,1,.15.95l-1,3.62A1.59,1.59,0,0,1,89.79,62.38Zm-8.29-6.21a1,1,0,0,0-.93.68l-1,3.62h0a.51.51,0,0,0,.06.44.54.54,0,0,0,.42.21l9.69.67a1,1,0,0,0,1-.67l1-3.62a.51.51,0,0,0-.06-.44.54.54,0,0,0-.42-.21l-9.69-.67Zm-2.23,4.21h0Z"/><path d="M69.76,87a1.6,1.6,0,0,1-1.2-.53l-6.38-7.33a1.15,1.15,0,0,1-.29-.95,1.1,1.1,0,0,1,.57-.77h0l3.28-1.84a1.59,1.59,0,0,1,1.92.35L74,83.3a1.15,1.15,0,0,1,.29.95,1.1,1.1,0,0,1-.57.77l-3.28,1.84A1.47,1.47,0,0,1,69.76,87Zm-7-9a.51.51,0,0,0-.27.35.54.54,0,0,0,.15.45L69,86.12a1,1,0,0,0,1.17.22l3.28-1.84a.51.51,0,0,0,.27-.35.55.55,0,0,0-.15-.45l-6.38-7.33A1,1,0,0,0,66,76.15Z"/><path d="M41.62,91.3a1.23,1.23,0,0,1-.33,0l-3.62-1a1.59,1.59,0,0,1-1.11-1.6l.67-9.69a1.15,1.15,0,0,1,.47-.87,1.11,1.11,0,0,1,.95-.15l3.62,1a1.59,1.59,0,0,1,1.11,1.6l-.67,9.69a1.15,1.15,0,0,1-.47.87A1.06,1.06,0,0,1,41.62,91.3ZM38.31,78.48a.47.47,0,0,0-.27.08.54.54,0,0,0-.21.42l-.67,9.69a1,1,0,0,0,.67,1l3.62,1a.5.5,0,0,0,.44-.06.54.54,0,0,0,.21-.42l.67-9.69a1,1,0,0,0-.67-1l-3.62-1h0Z"/><path d="M14.87,73.28h-.18a1.1,1.1,0,0,1-.77-.57l-1.84-3.28a1.59,1.59,0,0,1,.35-1.92l7.33-6.38a1.13,1.13,0,0,1,.95-.29,1.1,1.1,0,0,1,.77.57h0l1.84,3.28A1.59,1.59,0,0,1,23,66.6L15.64,73A1.17,1.17,0,0,1,14.87,73.28Zm5.65-11.86a.57.57,0,0,0-.37.15L12.83,68a1,1,0,0,0-.22,1.17l1.84,3.28a.51.51,0,0,0,.35.27.55.55,0,0,0,.45-.15l7.33-6.38A1,1,0,0,0,22.79,65L21,61.7a.51.51,0,0,0-.35-.27Z"/><path d="M18.49,42.31h-.1L8.7,41.64a1.15,1.15,0,0,1-.87-.47,1.1,1.1,0,0,1-.15-.95l1-3.62a1.57,1.57,0,0,1,1.6-1.11l9.69.67a1.15,1.15,0,0,1,.87.47,1.1,1.1,0,0,1,.15.95L20,41.2A1.59,1.59,0,0,1,18.49,42.31ZM10.21,36.1a1,1,0,0,0-.93.68l-1,3.62a.51.51,0,0,0,.06.44.54.54,0,0,0,.42.21l9.69.67a1,1,0,0,0,1-.67l1-3.62h0a.51.51,0,0,0-.06-.44.54.54,0,0,0-.42-.21l-9.69-.67Z"/><path d="M33.54,22.43a1.6,1.6,0,0,1-1.2-.53L26,14.58a1.15,1.15,0,0,1-.29-.95,1.1,1.1,0,0,1,.57-.77L29.52,11a1.59,1.59,0,0,1,1.92.35l6.38,7.33a1.15,1.15,0,0,1,.29.95,1.1,1.1,0,0,1-.57.77h0l-3.28,1.84A1.47,1.47,0,0,1,33.54,22.43Zm-3.3-11a.86.86,0,0,0-.42.1l-3.28,1.84a.51.51,0,0,0-.27.35.55.55,0,0,0,.15.45l6.38,7.33a1,1,0,0,0,1.17.22l3.28-1.84a.51.51,0,0,0,.27-.35.54.54,0,0,0-.15-.45L31,11.77A1,1,0,0,0,30.23,11.44Zm7.15,8.71h0Z"/><path d="M68.88,23.92a1.16,1.16,0,0,1-.58-.17l-3.24-1.9A1.59,1.59,0,0,1,64.38,20l3.09-9.21a1.15,1.15,0,0,1,.67-.73,1.1,1.1,0,0,1,1,.1l3.24,1.9A1.59,1.59,0,0,1,73,13.91l-3.09,9.21a1.14,1.14,0,0,1-.67.72A1,1,0,0,1,68.88,23.92Zm-.37-13.29-.16,0A.54.54,0,0,0,68,11l-3.09,9.21a1,1,0,0,0,.41,1.12l3.24,1.9h0a.51.51,0,0,0,.44.05.54.54,0,0,0,.31-.35l3.09-9.21A1,1,0,0,0,72,12.6l-3.24-1.9A.56.56,0,0,0,68.51,10.62Z"/><path d="M81.79,44.9a1.05,1.05,0,0,1-.44-.09,1.09,1.09,0,0,1-.6-.74l-1-3.63a1.59,1.59,0,0,1,.82-1.77l8.7-4.33a1.15,1.15,0,0,1,1,0,1.1,1.1,0,0,1,.61.74l1,3.63A1.61,1.61,0,0,1,91,40.44l-8.7,4.33A1.23,1.23,0,0,1,81.79,44.9Zm8.06-10.1a.62.62,0,0,0-.28.07l-8.7,4.33a1,1,0,0,0-.5,1.08l1,3.63h0a.51.51,0,0,0,.27.35.55.55,0,0,0,.47,0l8.7-4.33a1,1,0,0,0,.5-1.08l-1-3.63a.51.51,0,0,0-.27-.35A.46.46,0,0,0,89.85,34.8Z"/><path d="M85.5,72a1.46,1.46,0,0,1-.47-.08l-9.21-3.09a1.14,1.14,0,0,1-.72-.67,1.1,1.1,0,0,1,.1-1L77.08,64a1.58,1.58,0,0,1,1.83-.67l9.21,3.09a1.15,1.15,0,0,1,.73.67,1.1,1.1,0,0,1-.1,1l-1.9,3.24A1.59,1.59,0,0,1,85.5,72Zm-7.06-8.18a1,1,0,0,0-.84.45l-1.9,3.24h0a.51.51,0,0,0-.05.44.54.54,0,0,0,.35.31l9.21,3.09A1,1,0,0,0,86.34,71l1.9-3.24a.51.51,0,0,0,.05-.44.54.54,0,0,0-.35-.31l-9.21-3.09A.88.88,0,0,0,78.44,63.84Zm-3,3.54h0Z"/><path d="M59.92,90.84A1.61,1.61,0,0,1,58.5,90l-4.33-8.7a1.14,1.14,0,0,1,0-1,1.09,1.09,0,0,1,.74-.6l3.63-1a1.59,1.59,0,0,1,1.77.82l4.33,8.7a1.15,1.15,0,0,1,0,1,1.1,1.1,0,0,1-.74.61l-3.63,1A1.41,1.41,0,0,1,59.92,90.84ZM58.86,79.29l-.2,0-3.63,1h0a.51.51,0,0,0-.35.27.54.54,0,0,0,0,.47L59,89.71a1,1,0,0,0,1.08.5l3.63-1A.51.51,0,0,0,64.1,89a.54.54,0,0,0,0-.47l-4.33-8.7A1,1,0,0,0,58.86,79.29ZM55,80h0Z"/><path d="M31.49,87.86a1.15,1.15,0,0,1-.58-.17l-3.24-1.9A1.59,1.59,0,0,1,27,84l3.09-9.21a1.14,1.14,0,0,1,.67-.72,1.09,1.09,0,0,1,1,.1L34.95,76a1.59,1.59,0,0,1,.67,1.83l-3.09,9.21a1.15,1.15,0,0,1-.67.73A1.07,1.07,0,0,1,31.49,87.86Zm-.37-13.29-.16,0a.54.54,0,0,0-.31.35l-3.09,9.21A1,1,0,0,0,28,85.28l3.24,1.9a.51.51,0,0,0,.44.05.54.54,0,0,0,.31-.35l3.09-9.21a1,1,0,0,0-.41-1.12l-3.24-1.9h0A.56.56,0,0,0,31.12,74.57Z"/><path d="M10.14,63.68a1.06,1.06,0,0,1-.44-.09,1.1,1.1,0,0,1-.61-.74l-1-3.63A1.59,1.59,0,0,1,9,57.44l8.7-4.33a1.14,1.14,0,0,1,1,0,1.09,1.09,0,0,1,.6.74l1,3.63a1.59,1.59,0,0,1-.82,1.77l-8.7,4.33A1.23,1.23,0,0,1,10.14,63.68Zm8.06-10.1a.62.62,0,0,0-.28.07L9.23,58a1,1,0,0,0-.5,1.08l1,3.63A.51.51,0,0,0,10,63a.55.55,0,0,0,.47,0l8.7-4.33a1,1,0,0,0,.5-1.08l-1-3.63h0a.51.51,0,0,0-.27-.35A.47.47,0,0,0,18.21,53.58Z"/><path d="M21.56,34.64a1.48,1.48,0,0,1-.47-.08l-9.21-3.09a1.15,1.15,0,0,1-.73-.67,1.1,1.1,0,0,1,.1-1l1.9-3.24A1.58,1.58,0,0,1,15,25.94L24.18,29a1.14,1.14,0,0,1,.72.67,1.1,1.1,0,0,1-.1,1l-1.9,3.24A1.58,1.58,0,0,1,21.56,34.64ZM14.5,26.46a1,1,0,0,0-.84.45l-1.9,3.24a.51.51,0,0,0-.05.44.54.54,0,0,0,.35.31L21.28,34a1,1,0,0,0,1.12-.41l1.9-3.24h0a.51.51,0,0,0,.05-.44.54.54,0,0,0-.35-.31L14.78,26.5A.87.87,0,0,0,14.5,26.46Z"/><path d="M41.14,19.19a1.61,1.61,0,0,1-1.41-.86l-4.33-8.7a1.15,1.15,0,0,1,0-1A1.1,1.1,0,0,1,36.1,8l3.63-1a1.6,1.6,0,0,1,1.77.82l4.33,8.7a1.14,1.14,0,0,1,0,1,1.09,1.09,0,0,1-.74.6l-3.63,1A1.41,1.41,0,0,1,41.14,19.19ZM40.08,7.64l-.2,0-3.63,1a.51.51,0,0,0-.35.27.54.54,0,0,0,0,.47l4.33,8.7a1,1,0,0,0,1.08.5l3.63-1h0a.51.51,0,0,0,.35-.27.54.54,0,0,0,0-.47L41,8.17A1,1,0,0,0,40.08,7.64Z"/><path d="M56,71.58a.3.3,0,0,1-.08-.59,22.56,22.56,0,0,0,4.16-1.56.31.31,0,0,1,.4.14.3.3,0,0,1-.14.4A23.25,23.25,0,0,1,56,71.57Z"/><path d="M64.34,67.38a.3.3,0,0,1-.19-.54A22.83,22.83,0,0,0,57.1,27.25a.3.3,0,1,1,.19-.57,23.43,23.43,0,0,1,7.24,40.63A.3.3,0,0,1,64.34,67.38Z"/>
</svg>